<svg width="600" height="600" viewBox="0 0 716 795" fill="none" xmlns="http://www.w3.org/2000/svg">
<path d="M118.219 18.398C118.219 15.7453 118.694 13.6677 119.645 12.165C120.611 10.6623 122.206 9.911 124.429 9.911C126.652 9.911 128.239 10.6623 129.19 12.165C130.156 13.6677 130.639 15.7453 130.639 18.398C130.639 21.066 130.156 23.159 129.19 24.677C128.239 26.195 126.652 26.954 124.429 26.954C122.206 26.954 120.611 26.195 119.645 24.677C118.694 23.159 118.219 21.066 118.219 18.398ZM127.465 18.398C127.465 17.2633 127.388 16.3127 127.235 15.546C127.097 14.764 126.806 14.1277 126.361 13.637C125.932 13.1463 125.288 12.901 124.429 12.901C123.57 12.901 122.919 13.1463 122.474 13.637C122.045 14.1277 121.753 14.764 121.6 15.546C121.462 16.3127 121.393 17.2633 121.393 18.398C121.393 19.5633 121.462 20.5447 121.6 21.342C121.738 22.124 122.029 22.7603 122.474 23.251C122.919 23.7263 123.57 23.964 124.429 23.964C125.288 23.964 125.939 23.7263 126.384 23.251C126.829 22.7603 127.12 22.124 127.258 21.342C127.396 20.5447 127.465 19.5633 127.465 18.398ZM133.088 18.398C133.088 15.7453 133.563 13.6677 134.514 12.165C135.48 10.6623 137.075 9.911 139.298 9.911C141.521 9.911 143.108 10.6623 144.059 12.165C145.025 13.6677 145.508 15.7453 145.508 18.398C145.508 21.066 145.025 23.159 144.059 24.677C143.108 26.195 141.521 26.954 139.298 26.954C137.075 26.954 135.48 26.195 134.514 24.677C133.563 23.159 133.088 21.066 133.088 18.398ZM142.334 18.398C142.334 17.2633 142.257 16.3127 142.104 15.546C141.966 14.764 141.675 14.1277 141.23 13.637C140.801 13.1463 140.157 12.901 139.298 12.901C138.439 12.901 137.788 13.1463 137.343 13.637C136.914 14.1277 136.622 14.764 136.469 15.546C136.331 16.3127 136.262 17.2633 136.262 18.398C136.262 19.5633 136.331 20.5447 136.469 21.342C136.607 22.124 136.898 22.7603 137.343 23.251C137.788 23.7263 138.439 23.964 139.298 23.964C140.157 23.964 140.808 23.7263 141.253 23.251C141.698 22.7603 141.989 22.124 142.127 21.342C142.265 20.5447 142.334 19.5633 142.334 18.398ZM147.957 18.398C147.957 15.7453 148.433 13.6677 149.383 12.165C150.349 10.6623 151.944 9.911 154.167 9.911C156.391 9.911 157.978 10.6623 158.928 12.165C159.894 13.6677 160.377 15.7453 160.377 18.398C160.377 21.066 159.894 23.159 158.928 24.677C157.978 26.195 156.391 26.954 154.167 26.954C151.944 26.954 150.349 26.195 149.383 24.677C148.433 23.159 147.957 21.066 147.957 18.398ZM157.203 18.398C157.203 17.2633 157.127 16.3127 156.973 15.546C156.835 14.764 156.544 14.1277 156.099 13.637C155.67 13.1463 155.026 12.901 154.167 12.901C153.309 12.901 152.657 13.1463 152.212 13.637C151.783 14.1277 151.492 14.764 151.338 15.546C151.2 16.3127 151.131 17.2633 151.131 18.398C151.131 19.5633 151.2 20.5447 151.338 21.342C151.476 22.124 151.768 22.7603 152.212 23.251C152.657 23.7263 153.309 23.964 154.167 23.964C155.026 23.964 155.678 23.7263 156.122 23.251C156.567 22.7603 156.858 22.124 156.996 21.342C157.134 20.5447 157.203 19.5633 157.203 18.398ZM162.826 18.398C162.826 15.7453 163.302 13.6677 164.252 12.165C165.218 10.6623 166.813 9.911 169.036 9.911C171.26 9.911 172.847 10.6623 173.797 12.165C174.763 13.6677 175.246 15.7453 175.246 18.398C175.246 21.066 174.763 23.159 173.797 24.677C172.847 26.195 171.26 26.954 169.036 26.954C166.813 26.954 165.218 26.195 164.252 24.677C163.302 23.159 162.826 21.066 162.826 18.398ZM172.072 18.398C172.072 17.2633 171.996 16.3127 171.842 15.546C171.704 14.764 171.413 14.1277 170.968 13.637C170.539 13.1463 169.895 12.901 169.036 12.901C168.178 12.901 167.526 13.1463 167.081 13.637C166.652 14.1277 166.361 14.764 166.207 15.546C166.069 16.3127 166 17.2633 166 18.398C166 19.5633 166.069 20.5447 166.207 21.342C166.345 22.124 166.637 22.7603 167.081 23.251C167.526 23.7263 168.178 23.964 169.036 23.964C169.895 23.964 170.547 23.7263 170.991 23.251C171.436 22.7603 171.727 22.124 171.865 21.342C172.003 20.5447 172.072 19.5633 172.072 18.398ZM177.696 18.398C177.696 15.7453 178.171 13.6677 179.122 12.165C180.088 10.6623 181.682 9.911 183.906 9.911C186.129 9.911 187.716 10.6623 188.667 12.165C189.633 13.6677 190.116 15.7453 190.116 18.398C190.116 21.066 189.633 23.159 188.667 24.677C187.716 26.195 186.129 26.954 183.906 26.954C181.682 26.954 180.088 26.195 179.122 24.677C178.171 23.159 177.696 21.066 177.696 18.398ZM186.942 18.398C186.942 17.2633 186.865 16.3127 186.712 15.546C186.574 14.764 186.282 14.1277 185.838 13.637C185.408 13.1463 184.764 12.901 183.906 12.901C183.047 12.901 182.395 13.1463 181.951 13.637C181.521 14.1277 181.23 14.764 181.077 15.546C180.939 16.3127 180.87 17.2633 180.87 18.398C180.87 19.5633 180.939 20.5447 181.077 21.342C181.215 22.124 181.506 22.7603 181.951 23.251C182.395 23.7263 183.047 23.964 183.906 23.964C184.764 23.964 185.416 23.7263 185.861 23.251C186.305 22.7603 186.597 22.124 186.735 21.342C186.873 20.5447 186.942 19.5633 186.942 18.398ZM192.174 13.2V10.233H197.717V27H194.405V13.2H192.174ZM200.898 18.398C200.898 15.7453 201.373 13.6677 202.324 12.165C203.29 10.6623 204.884 9.911 207.108 9.911C209.331 9.911 210.918 10.6623 211.869 12.165C212.835 13.6677 213.318 15.7453 213.318 18.398C213.318 21.066 212.835 23.159 211.869 24.677C210.918 26.195 209.331 26.954 207.108 26.954C204.884 26.954 203.29 26.195 202.324 24.677C201.373 23.159 200.898 21.066 200.898 18.398ZM210.144 18.398C210.144 17.2633 210.067 16.3127 209.914 15.546C209.776 14.764 209.484 14.1277 209.04 13.637C208.61 13.1463 207.966 12.901 207.108 12.901C206.249 12.901 205.597 13.1463 205.153 13.637C204.723 14.1277 204.432 14.764 204.279 15.546C204.141 16.3127 204.072 17.2633 204.072 18.398C204.072 19.5633 204.141 20.5447 204.279 21.342C204.417 22.124 204.708 22.7603 205.153 23.251C205.597 23.7263 206.249 23.964 207.108 23.964C207.966 23.964 208.618 23.7263 209.063 23.251C209.507 22.7603 209.799 22.124 209.937 21.342C210.075 20.5447 210.144 19.5633 210.144 18.398ZM215.767 18.398C215.767 15.7453 216.242 13.6677 217.193 12.165C218.159 10.6623 219.754 9.911 221.977 9.911C224.2 9.911 225.787 10.6623 226.738 12.165C227.704 13.6677 228.187 15.7453 228.187 18.398C228.187 21.066 227.704 23.159 226.738 24.677C225.787 26.195 224.2 26.954 221.977 26.954C219.754 26.954 218.159 26.195 217.193 24.677C216.242 23.159 215.767 21.066 215.767 18.398ZM225.013 18.398C225.013 17.2633 224.936 16.3127 224.783 15.546C224.645 14.764 224.354 14.1277 223.909 13.637C223.48 13.1463 222.836 12.901 221.977 12.901C221.118 12.901 220.467 13.1463 220.022 13.637C219.593 14.1277 219.301 14.764 219.148 15.546C219.01 16.3127 218.941 17.2633 218.941 18.398C218.941 19.5633 219.01 20.5447 219.148 21.342C219.286 22.124 219.577 22.7603 220.022 23.251C220.467 23.7263 221.118 23.964 221.977 23.964C222.836 23.964 223.487 23.7263 223.932 23.251C224.377 22.7603 224.668 22.124 224.806 21.342C224.944 20.5447 225.013 19.5633 225.013 18.398Z" fill="white" fill-opacity="0.2"/>
<path d="M353.219 93.398C353.219 90.7453 353.694 88.6677 354.645 87.165C355.611 85.6623 357.206 84.911 359.429 84.911C361.652 84.911 363.239 85.6623 364.19 87.165C365.156 88.6677 365.639 90.7453 365.639 93.398C365.639 96.066 365.156 98.159 364.19 99.677C363.239 101.195 361.652 101.954 359.429 101.954C357.206 101.954 355.611 101.195 354.645 99.677C353.694 98.159 353.219 96.066 353.219 93.398ZM362.465 93.398C362.465 92.2633 362.388 91.3127 362.235 90.546C362.097 89.764 361.806 89.1277 361.361 88.637C360.932 88.1463 360.288 87.901 359.429 87.901C358.57 87.901 357.919 88.1463 357.474 88.637C357.045 89.1277 356.753 89.764 356.6 90.546C356.462 91.3127 356.393 92.2633 356.393 93.398C356.393 94.5633 356.462 95.5447 356.6 96.342C356.738 97.124 357.029 97.7603 357.474 98.251C357.919 98.7263 358.57 98.964 359.429 98.964C360.288 98.964 360.939 98.7263 361.384 98.251C361.829 97.7603 362.12 97.124 362.258 96.342C362.396 95.5447 362.465 94.5633 362.465 93.398ZM368.088 93.398C368.088 90.7453 368.563 88.6677 369.514 87.165C370.48 85.6623 372.075 84.911 374.298 84.911C376.521 84.911 378.108 85.6623 379.059 87.165C380.025 88.6677 380.508 90.7453 380.508 93.398C380.508 96.066 380.025 98.159 379.059 99.677C378.108 101.195 376.521 101.954 374.298 101.954C372.075 101.954 370.48 101.195 369.514 99.677C368.563 98.159 368.088 96.066 368.088 93.398ZM377.334 93.398C377.334 92.2633 377.257 91.3127 377.104 90.546C376.966 89.764 376.675 89.1277 376.23 88.637C375.801 88.1463 375.157 87.901 374.298 87.901C373.439 87.901 372.788 88.1463 372.343 88.637C371.914 89.1277 371.622 89.764 371.469 90.546C371.331 91.3127 371.262 92.2633 371.262 93.398C371.262 94.5633 371.331 95.5447 371.469 96.342C371.607 97.124 371.898 97.7603 372.343 98.251C372.788 98.7263 373.439 98.964 374.298 98.964C375.157 98.964 375.808 98.7263 376.253 98.251C376.698 97.7603 376.989 97.124 377.127 96.342C377.265 95.5447 377.334 94.5633 377.334 93.398ZM382.957 93.398C382.957 90.7453 383.433 88.6677 384.383 87.165C385.349 85.6623 386.944 84.911 389.167 84.911C391.391 84.911 392.978 85.6623 393.928 87.165C394.894 88.6677 395.377 90.7453 395.377 93.398C395.377 96.066 394.894 98.159 393.928 99.677C392.978 101.195 391.391 101.954 389.167 101.954C386.944 101.954 385.349 101.195 384.383 99.677C383.433 98.159 382.957 96.066 382.957 93.398ZM392.203 93.398C392.203 92.2633 392.127 91.3127 391.973 90.546C391.835 89.764 391.544 89.1277 391.099 88.637C390.67 88.1463 390.026 87.901 389.167 87.901C388.309 87.901 387.657 88.1463 387.212 88.637C386.783 89.1277 386.492 89.764 386.338 90.546C386.2 91.3127 386.131 92.2633 386.131 93.398C386.131 94.5633 386.2 95.5447 386.338 96.342C386.476 97.124 386.768 97.7603 387.212 98.251C387.657 98.7263 388.309 98.964 389.167 98.964C390.026 98.964 390.678 98.7263 391.122 98.251C391.567 97.7603 391.858 97.124 391.996 96.342C392.134 95.5447 392.203 94.5633 392.203 93.398ZM397.826 93.398C397.826 90.7453 398.302 88.6677 399.252 87.165C400.218 85.6623 401.813 84.911 404.036 84.911C406.26 84.911 407.847 85.6623 408.797 87.165C409.763 88.6677 410.246 90.7453 410.246 93.398C410.246 96.066 409.763 98.159 408.797 99.677C407.847 101.195 406.26 101.954 404.036 101.954C401.813 101.954 400.218 101.195 399.252 99.677C398.302 98.159 397.826 96.066 397.826 93.398ZM407.072 93.398C407.072 92.2633 406.996 91.3127 406.842 90.546C406.704 89.764 406.413 89.1277 405.968 88.637C405.539 88.1463 404.895 87.901 404.036 87.901C403.178 87.901 402.526 88.1463 402.081 88.637C401.652 89.1277 401.361 89.764 401.207 90.546C401.069 91.3127 401 92.2633 401 93.398C401 94.5633 401.069 95.5447 401.207 96.342C401.345 97.124 401.637 97.7603 402.081 98.251C402.526 98.7263 403.178 98.964 404.036 98.964C404.895 98.964 405.547 98.7263 405.991 98.251C406.436 97.7603 406.727 97.124 406.865 96.342C407.003 95.5447 407.072 94.5633 407.072 93.398ZM412.696 93.398C412.696 90.7453 413.171 88.6677 414.122 87.165C415.088 85.6623 416.682 84.911 418.906 84.911C421.129 84.911 422.716 85.6623 423.667 87.165C424.633 88.6677 425.116 90.7453 425.116 93.398C425.116 96.066 424.633 98.159 423.667 99.677C422.716 101.195 421.129 101.954 418.906 101.954C416.682 101.954 415.088 101.195 414.122 99.677C413.171 98.159 412.696 96.066 412.696 93.398ZM421.942 93.398C421.942 92.2633 421.865 91.3127 421.712 90.546C421.574 89.764 421.282 89.1277 420.838 88.637C420.408 88.1463 419.764 87.901 418.906 87.901C418.047 87.901 417.395 88.1463 416.951 88.637C416.521 89.1277 416.23 89.764 416.077 90.546C415.939 91.3127 415.87 92.2633 415.87 93.398C415.87 94.5633 415.939 95.5447 416.077 96.342C416.215 97.124 416.506 97.7603 416.951 98.251C417.395 98.7263 418.047 98.964 418.906 98.964C419.764 98.964 420.416 98.7263 420.861 98.251C421.305 97.7603 421.597 97.124 421.735 96.342C421.873 95.5447 421.942 94.5633 421.942 93.398ZM427.174 88.2V85.233H432.717V102H429.405V88.2H427.174ZM435.898 93.398C435.898 90.7453 436.373 88.6677 437.324 87.165C438.29 85.6623 439.884 84.911 442.108 84.911C444.331 84.911 445.918 85.6623 446.869 87.165C447.835 88.6677 448.318 90.7453 448.318 93.398C448.318 96.066 447.835 98.159 446.869 99.677C445.918 101.195 444.331 101.954 442.108 101.954C439.884 101.954 438.29 101.195 437.324 99.677C436.373 98.159 435.898 96.066 435.898 93.398ZM445.144 93.398C445.144 92.2633 445.067 91.3127 444.914 90.546C444.776 89.764 444.484 89.1277 444.04 88.637C443.61 88.1463 442.966 87.901 442.108 87.901C441.249 87.901 440.597 88.1463 440.153 88.637C439.723 89.1277 439.432 89.764 439.279 90.546C439.141 91.3127 439.072 92.2633 439.072 93.398C439.072 94.5633 439.141 95.5447 439.279 96.342C439.417 97.124 439.708 97.7603 440.153 98.251C440.597 98.7263 441.249 98.964 442.108 98.964C442.966 98.964 443.618 98.7263 444.063 98.251C444.507 97.7603 444.799 97.124 444.937 96.342C445.075 95.5447 445.144 94.5633 445.144 93.398ZM450.376 88.2V85.233H455.919V102H452.607V88.2H450.376Z" fill="white" fill-opacity="0.2"/>
<path d="M594.219 776.398C594.219 773.745 594.694 771.668 595.645 770.165C596.611 768.662 598.206 767.911 600.429 767.911C602.652 767.911 604.239 768.662 605.19 770.165C606.156 771.668 606.639 773.745 606.639 776.398C606.639 779.066 606.156 781.159 605.19 782.677C604.239 784.195 602.652 784.954 600.429 784.954C598.206 784.954 596.611 784.195 595.645 782.677C594.694 781.159 594.219 779.066 594.219 776.398ZM603.465 776.398C603.465 775.263 603.388 774.313 603.235 773.546C603.097 772.764 602.806 772.128 602.361 771.637C601.932 771.146 601.288 770.901 600.429 770.901C599.57 770.901 598.919 771.146 598.474 771.637C598.045 772.128 597.753 772.764 597.6 773.546C597.462 774.313 597.393 775.263 597.393 776.398C597.393 777.563 597.462 778.545 597.6 779.342C597.738 780.124 598.029 780.76 598.474 781.251C598.919 781.726 599.57 781.964 600.429 781.964C601.288 781.964 601.939 781.726 602.384 781.251C602.829 780.76 603.12 780.124 603.258 779.342C603.396 778.545 603.465 777.563 603.465 776.398ZM609.088 776.398C609.088 773.745 609.563 771.668 610.514 770.165C611.48 768.662 613.075 767.911 615.298 767.911C617.521 767.911 619.108 768.662 620.059 770.165C621.025 771.668 621.508 773.745 621.508 776.398C621.508 779.066 621.025 781.159 620.059 782.677C619.108 784.195 617.521 784.954 615.298 784.954C613.075 784.954 611.48 784.195 610.514 782.677C609.563 781.159 609.088 779.066 609.088 776.398ZM618.334 776.398C618.334 775.263 618.257 774.313 618.104 773.546C617.966 772.764 617.675 772.128 617.23 771.637C616.801 771.146 616.157 770.901 615.298 770.901C614.439 770.901 613.788 771.146 613.343 771.637C612.914 772.128 612.622 772.764 612.469 773.546C612.331 774.313 612.262 775.263 612.262 776.398C612.262 777.563 612.331 778.545 612.469 779.342C612.607 780.124 612.898 780.76 613.343 781.251C613.788 781.726 614.439 781.964 615.298 781.964C616.157 781.964 616.808 781.726 617.253 781.251C617.698 780.76 617.989 780.124 618.127 779.342C618.265 778.545 618.334 777.563 618.334 776.398ZM623.957 776.398C623.957 773.745 624.433 771.668 625.383 770.165C626.349 768.662 627.944 767.911 630.167 767.911C632.391 767.911 633.978 768.662 634.928 770.165C635.894 771.668 636.377 773.745 636.377 776.398C636.377 779.066 635.894 781.159 634.928 782.677C633.978 784.195 632.391 784.954 630.167 784.954C627.944 784.954 626.349 784.195 625.383 782.677C624.433 781.159 623.957 779.066 623.957 776.398ZM633.203 776.398C633.203 775.263 633.127 774.313 632.973 773.546C632.835 772.764 632.544 772.128 632.099 771.637C631.67 771.146 631.026 770.901 630.167 770.901C629.309 770.901 628.657 771.146 628.212 771.637C627.783 772.128 627.492 772.764 627.338 773.546C627.2 774.313 627.131 775.263 627.131 776.398C627.131 777.563 627.2 778.545 627.338 779.342C627.476 780.124 627.768 780.76 628.212 781.251C628.657 781.726 629.309 781.964 630.167 781.964C631.026 781.964 631.678 781.726 632.122 781.251C632.567 780.76 632.858 780.124 632.996 779.342C633.134 778.545 633.203 777.563 633.203 776.398ZM638.826 776.398C638.826 773.745 639.302 771.668 640.252 770.165C641.218 768.662 642.813 767.911 645.036 767.911C647.26 767.911 648.847 768.662 649.797 770.165C650.763 771.668 651.246 773.745 651.246 776.398C651.246 779.066 650.763 781.159 649.797 782.677C648.847 784.195 647.26 784.954 645.036 784.954C642.813 784.954 641.218 784.195 640.252 782.677C639.302 781.159 638.826 779.066 638.826 776.398ZM648.072 776.398C648.072 775.263 647.996 774.313 647.842 773.546C647.704 772.764 647.413 772.128 646.968 771.637C646.539 771.146 645.895 770.901 645.036 770.901C644.178 770.901 643.526 771.146 643.081 771.637C642.652 772.128 642.361 772.764 642.207 773.546C642.069 774.313 642 775.263 642 776.398C642 777.563 642.069 778.545 642.207 779.342C642.345 780.124 642.637 780.76 643.081 781.251C643.526 781.726 644.178 781.964 645.036 781.964C645.895 781.964 646.547 781.726 646.991 781.251C647.436 780.76 647.727 780.124 647.865 779.342C648.003 778.545 648.072 777.563 648.072 776.398ZM653.696 776.398C653.696 773.745 654.171 771.668 655.122 770.165C656.088 768.662 657.682 767.911 659.906 767.911C662.129 767.911 663.716 768.662 664.667 770.165C665.633 771.668 666.116 773.745 666.116 776.398C666.116 779.066 665.633 781.159 664.667 782.677C663.716 784.195 662.129 784.954 659.906 784.954C657.682 784.954 656.088 784.195 655.122 782.677C654.171 781.159 653.696 779.066 653.696 776.398ZM662.942 776.398C662.942 775.263 662.865 774.313 662.712 773.546C662.574 772.764 662.282 772.128 661.838 771.637C661.408 771.146 660.764 770.901 659.906 770.901C659.047 770.901 658.395 771.146 657.951 771.637C657.521 772.128 657.23 772.764 657.077 773.546C656.939 774.313 656.87 775.263 656.87 776.398C656.87 777.563 656.939 778.545 657.077 779.342C657.215 780.124 657.506 780.76 657.951 781.251C658.395 781.726 659.047 781.964 659.906 781.964C660.764 781.964 661.416 781.726 661.861 781.251C662.305 780.76 662.597 780.124 662.735 779.342C662.873 778.545 662.942 777.563 662.942 776.398ZM668.174 771.2V768.233H673.717V785H670.405V771.2H668.174ZM676.898 776.398C676.898 773.745 677.373 771.668 678.324 770.165C679.29 768.662 680.884 767.911 683.108 767.911C685.331 767.911 686.918 768.662 687.869 770.165C688.835 771.668 689.318 773.745 689.318 776.398C689.318 779.066 688.835 781.159 687.869 782.677C686.918 784.195 685.331 784.954 683.108 784.954C680.884 784.954 679.29 784.195 678.324 782.677C677.373 781.159 676.898 779.066 676.898 776.398ZM686.144 776.398C686.144 775.263 686.067 774.313 685.914 773.546C685.776 772.764 685.484 772.128 685.04 771.637C684.61 771.146 683.966 770.901 683.108 770.901C682.249 770.901 681.597 771.146 681.153 771.637C680.723 772.128 680.432 772.764 680.279 773.546C680.141 774.313 680.072 775.263 680.072 776.398C680.072 777.563 680.141 778.545 680.279 779.342C680.417 780.124 680.708 780.76 681.153 781.251C681.597 781.726 682.249 781.964 683.108 781.964C683.966 781.964 684.618 781.726 685.063 781.251C685.507 780.76 685.799 780.124 685.937 779.342C686.075 778.545 686.144 777.563 686.144 776.398ZM691.376 771.2V768.233H696.919V785H693.607V771.2H691.376Z" fill="white" fill-opacity="0.2"/>
<path d="M617.219 173.398C617.219 170.745 617.694 168.668 618.645 167.165C619.611 165.662 621.206 164.911 623.429 164.911C625.652 164.911 627.239 165.662 628.19 167.165C629.156 168.668 629.639 170.745 629.639 173.398C629.639 176.066 629.156 178.159 628.19 179.677C627.239 181.195 625.652 181.954 623.429 181.954C621.206 181.954 619.611 181.195 618.645 179.677C617.694 178.159 617.219 176.066 617.219 173.398ZM626.465 173.398C626.465 172.263 626.388 171.313 626.235 170.546C626.097 169.764 625.806 169.128 625.361 168.637C624.932 168.146 624.288 167.901 623.429 167.901C622.57 167.901 621.919 168.146 621.474 168.637C621.045 169.128 620.753 169.764 620.6 170.546C620.462 171.313 620.393 172.263 620.393 173.398C620.393 174.563 620.462 175.545 620.6 176.342C620.738 177.124 621.029 177.76 621.474 178.251C621.919 178.726 622.57 178.964 623.429 178.964C624.288 178.964 624.939 178.726 625.384 178.251C625.829 177.76 626.12 177.124 626.258 176.342C626.396 175.545 626.465 174.563 626.465 173.398ZM632.088 173.398C632.088 170.745 632.563 168.668 633.514 167.165C634.48 165.662 636.075 164.911 638.298 164.911C640.521 164.911 642.108 165.662 643.059 167.165C644.025 168.668 644.508 170.745 644.508 173.398C644.508 176.066 644.025 178.159 643.059 179.677C642.108 181.195 640.521 181.954 638.298 181.954C636.075 181.954 634.48 181.195 633.514 179.677C632.563 178.159 632.088 176.066 632.088 173.398ZM641.334 173.398C641.334 172.263 641.257 171.313 641.104 170.546C640.966 169.764 640.675 169.128 640.23 168.637C639.801 168.146 639.157 167.901 638.298 167.901C637.439 167.901 636.788 168.146 636.343 168.637C635.914 169.128 635.622 169.764 635.469 170.546C635.331 171.313 635.262 172.263 635.262 173.398C635.262 174.563 635.331 175.545 635.469 176.342C635.607 177.124 635.898 177.76 636.343 178.251C636.788 178.726 637.439 178.964 638.298 178.964C639.157 178.964 639.808 178.726 640.253 178.251C640.698 177.76 640.989 177.124 641.127 176.342C641.265 175.545 641.334 174.563 641.334 173.398ZM646.957 173.398C646.957 170.745 647.433 168.668 648.383 167.165C649.349 165.662 650.944 164.911 653.167 164.911C655.391 164.911 656.978 165.662 657.928 167.165C658.894 168.668 659.377 170.745 659.377 173.398C659.377 176.066 658.894 178.159 657.928 179.677C656.978 181.195 655.391 181.954 653.167 181.954C650.944 181.954 649.349 181.195 648.383 179.677C647.433 178.159 646.957 176.066 646.957 173.398ZM656.203 173.398C656.203 172.263 656.127 171.313 655.973 170.546C655.835 169.764 655.544 169.128 655.099 168.637C654.67 168.146 654.026 167.901 653.167 167.901C652.309 167.901 651.657 168.146 651.212 168.637C650.783 169.128 650.492 169.764 650.338 170.546C650.2 171.313 650.131 172.263 650.131 173.398C650.131 174.563 650.2 175.545 650.338 176.342C650.476 177.124 650.768 177.76 651.212 178.251C651.657 178.726 652.309 178.964 653.167 178.964C654.026 178.964 654.678 178.726 655.122 178.251C655.567 177.76 655.858 177.124 655.996 176.342C656.134 175.545 656.203 174.563 656.203 173.398ZM661.435 168.2V165.233H666.978V182H663.666V168.2H661.435ZM670.159 173.398C670.159 170.745 670.635 168.668 671.585 167.165C672.551 165.662 674.146 164.911 676.369 164.911C678.593 164.911 680.18 165.662 681.13 167.165C682.096 168.668 682.579 170.745 682.579 173.398C682.579 176.066 682.096 178.159 681.13 179.677C680.18 181.195 678.593 181.954 676.369 181.954C674.146 181.954 672.551 181.195 671.585 179.677C670.635 178.159 670.159 176.066 670.159 173.398ZM679.405 173.398C679.405 172.263 679.329 171.313 679.175 170.546C679.037 169.764 678.746 169.128 678.301 168.637C677.872 168.146 677.228 167.901 676.369 167.901C675.511 167.901 674.859 168.146 674.414 168.637C673.985 169.128 673.694 169.764 673.54 170.546C673.402 171.313 673.333 172.263 673.333 173.398C673.333 174.563 673.402 175.545 673.54 176.342C673.678 177.124 673.97 177.76 674.414 178.251C674.859 178.726 675.511 178.964 676.369 178.964C677.228 178.964 677.88 178.726 678.324 178.251C678.769 177.76 679.06 177.124 679.198 176.342C679.336 175.545 679.405 174.563 679.405 173.398ZM684.638 168.2V165.233H690.181V182H686.869V168.2H684.638ZM692.971 168.2V165.233H698.514V182H695.202V168.2H692.971ZM701.695 173.398C701.695 170.745 702.17 168.668 703.121 167.165C704.087 165.662 705.681 164.911 707.905 164.911C710.128 164.911 711.715 165.662 712.666 167.165C713.632 168.668 714.115 170.745 714.115 173.398C714.115 176.066 713.632 178.159 712.666 179.677C711.715 181.195 710.128 181.954 707.905 181.954C705.681 181.954 704.087 181.195 703.121 179.677C702.17 178.159 701.695 176.066 701.695 173.398ZM710.941 173.398C710.941 172.263 710.864 171.313 710.711 170.546C710.573 169.764 710.281 169.128 709.837 168.637C709.407 168.146 708.763 167.901 707.905 167.901C707.046 167.901 706.394 168.146 705.95 168.637C705.52 169.128 705.229 169.764 705.076 170.546C704.938 171.313 704.869 172.263 704.869 173.398C704.869 174.563 704.938 175.545 705.076 176.342C705.214 177.124 705.505 177.76 705.95 178.251C706.394 178.726 707.046 178.964 707.905 178.964C708.763 178.964 709.415 178.726 709.86 178.251C710.304 177.76 710.596 177.124 710.734 176.342C710.872 175.545 710.941 174.563 710.941 173.398Z" fill="white" fill-opacity="0.2"/>
<path d="M561.219 512.398C561.219 509.745 561.694 507.668 562.645 506.165C563.611 504.662 565.206 503.911 567.429 503.911C569.652 503.911 571.239 504.662 572.19 506.165C573.156 507.668 573.639 509.745 573.639 512.398C573.639 515.066 573.156 517.159 572.19 518.677C571.239 520.195 569.652 520.954 567.429 520.954C565.206 520.954 563.611 520.195 562.645 518.677C561.694 517.159 561.219 515.066 561.219 512.398ZM570.465 512.398C570.465 511.263 570.388 510.313 570.235 509.546C570.097 508.764 569.806 508.128 569.361 507.637C568.932 507.146 568.288 506.901 567.429 506.901C566.57 506.901 565.919 507.146 565.474 507.637C565.045 508.128 564.753 508.764 564.6 509.546C564.462 510.313 564.393 511.263 564.393 512.398C564.393 513.563 564.462 514.545 564.6 515.342C564.738 516.124 565.029 516.76 565.474 517.251C565.919 517.726 566.57 517.964 567.429 517.964C568.288 517.964 568.939 517.726 569.384 517.251C569.829 516.76 570.12 516.124 570.258 515.342C570.396 514.545 570.465 513.563 570.465 512.398ZM576.088 512.398C576.088 509.745 576.563 507.668 577.514 506.165C578.48 504.662 580.075 503.911 582.298 503.911C584.521 503.911 586.108 504.662 587.059 506.165C588.025 507.668 588.508 509.745 588.508 512.398C588.508 515.066 588.025 517.159 587.059 518.677C586.108 520.195 584.521 520.954 582.298 520.954C580.075 520.954 578.48 520.195 577.514 518.677C576.563 517.159 576.088 515.066 576.088 512.398ZM585.334 512.398C585.334 511.263 585.257 510.313 585.104 509.546C584.966 508.764 584.675 508.128 584.23 507.637C583.801 507.146 583.157 506.901 582.298 506.901C581.439 506.901 580.788 507.146 580.343 507.637C579.914 508.128 579.622 508.764 579.469 509.546C579.331 510.313 579.262 511.263 579.262 512.398C579.262 513.563 579.331 514.545 579.469 515.342C579.607 516.124 579.898 516.76 580.343 517.251C580.788 517.726 581.439 517.964 582.298 517.964C583.157 517.964 583.808 517.726 584.253 517.251C584.698 516.76 584.989 516.124 585.127 515.342C585.265 514.545 585.334 513.563 585.334 512.398ZM590.957 512.398C590.957 509.745 591.433 507.668 592.383 506.165C593.349 504.662 594.944 503.911 597.167 503.911C599.391 503.911 600.978 504.662 601.928 506.165C602.894 507.668 603.377 509.745 603.377 512.398C603.377 515.066 602.894 517.159 601.928 518.677C600.978 520.195 599.391 520.954 597.167 520.954C594.944 520.954 593.349 520.195 592.383 518.677C591.433 517.159 590.957 515.066 590.957 512.398ZM600.203 512.398C600.203 511.263 600.127 510.313 599.973 509.546C599.835 508.764 599.544 508.128 599.099 507.637C598.67 507.146 598.026 506.901 597.167 506.901C596.309 506.901 595.657 507.146 595.212 507.637C594.783 508.128 594.492 508.764 594.338 509.546C594.2 510.313 594.131 511.263 594.131 512.398C594.131 513.563 594.2 514.545 594.338 515.342C594.476 516.124 594.768 516.76 595.212 517.251C595.657 517.726 596.309 517.964 597.167 517.964C598.026 517.964 598.678 517.726 599.122 517.251C599.567 516.76 599.858 516.124 599.996 515.342C600.134 514.545 600.203 513.563 600.203 512.398ZM605.826 512.398C605.826 509.745 606.302 507.668 607.252 506.165C608.218 504.662 609.813 503.911 612.036 503.911C614.26 503.911 615.847 504.662 616.797 506.165C617.763 507.668 618.246 509.745 618.246 512.398C618.246 515.066 617.763 517.159 616.797 518.677C615.847 520.195 614.26 520.954 612.036 520.954C609.813 520.954 608.218 520.195 607.252 518.677C606.302 517.159 605.826 515.066 605.826 512.398ZM615.072 512.398C615.072 511.263 614.996 510.313 614.842 509.546C614.704 508.764 614.413 508.128 613.968 507.637C613.539 507.146 612.895 506.901 612.036 506.901C611.178 506.901 610.526 507.146 610.081 507.637C609.652 508.128 609.361 508.764 609.207 509.546C609.069 510.313 609 511.263 609 512.398C609 513.563 609.069 514.545 609.207 515.342C609.345 516.124 609.637 516.76 610.081 517.251C610.526 517.726 611.178 517.964 612.036 517.964C612.895 517.964 613.547 517.726 613.991 517.251C614.436 516.76 614.727 516.124 614.865 515.342C615.003 514.545 615.072 513.563 615.072 512.398ZM620.696 512.398C620.696 509.745 621.171 507.668 622.122 506.165C623.088 504.662 624.682 503.911 626.906 503.911C629.129 503.911 630.716 504.662 631.667 506.165C632.633 507.668 633.116 509.745 633.116 512.398C633.116 515.066 632.633 517.159 631.667 518.677C630.716 520.195 629.129 520.954 626.906 520.954C624.682 520.954 623.088 520.195 622.122 518.677C621.171 517.159 620.696 515.066 620.696 512.398ZM629.942 512.398C629.942 511.263 629.865 510.313 629.712 509.546C629.574 508.764 629.282 508.128 628.838 507.637C628.408 507.146 627.764 506.901 626.906 506.901C626.047 506.901 625.395 507.146 624.951 507.637C624.521 508.128 624.23 508.764 624.077 509.546C623.939 510.313 623.87 511.263 623.87 512.398C623.87 513.563 623.939 514.545 624.077 515.342C624.215 516.124 624.506 516.76 624.951 517.251C625.395 517.726 626.047 517.964 626.906 517.964C627.764 517.964 628.416 517.726 628.861 517.251C629.305 516.76 629.597 516.124 629.735 515.342C629.873 514.545 629.942 513.563 629.942 512.398ZM635.174 507.2V504.233H640.717V521H637.405V507.2H635.174ZM643.898 512.398C643.898 509.745 644.373 507.668 645.324 506.165C646.29 504.662 647.884 503.911 650.108 503.911C652.331 503.911 653.918 504.662 654.869 506.165C655.835 507.668 656.318 509.745 656.318 512.398C656.318 515.066 655.835 517.159 654.869 518.677C653.918 520.195 652.331 520.954 650.108 520.954C647.884 520.954 646.29 520.195 645.324 518.677C644.373 517.159 643.898 515.066 643.898 512.398ZM653.144 512.398C653.144 511.263 653.067 510.313 652.914 509.546C652.776 508.764 652.484 508.128 652.04 507.637C651.61 507.146 650.966 506.901 650.108 506.901C649.249 506.901 648.597 507.146 648.153 507.637C647.723 508.128 647.432 508.764 647.279 509.546C647.141 510.313 647.072 511.263 647.072 512.398C647.072 513.563 647.141 514.545 647.279 515.342C647.417 516.124 647.708 516.76 648.153 517.251C648.597 517.726 649.249 517.964 650.108 517.964C650.966 517.964 651.618 517.726 652.063 517.251C652.507 516.76 652.799 516.124 652.937 515.342C653.075 514.545 653.144 513.563 653.144 512.398ZM658.376 507.2V504.233H663.919V521H660.607V507.2H658.376Z" fill="white" fill-opacity="0.2"/>
<path d="M1.219 693.398C1.219 690.745 1.69433 688.668 2.645 687.165C3.611 685.662 5.20567 684.911 7.429 684.911C9.65233 684.911 11.2393 685.662 12.19 687.165C13.156 688.668 13.639 690.745 13.639 693.398C13.639 696.066 13.156 698.159 12.19 699.677C11.2393 701.195 9.65233 701.954 7.429 701.954C5.20567 701.954 3.611 701.195 2.645 699.677C1.69433 698.159 1.219 696.066 1.219 693.398ZM10.465 693.398C10.465 692.263 10.3883 691.313 10.235 690.546C10.097 689.764 9.80567 689.128 9.361 688.637C8.93167 688.146 8.28767 687.901 7.429 687.901C6.57033 687.901 5.91867 688.146 5.474 688.637C5.04467 689.128 4.75333 689.764 4.6 690.546C4.462 691.313 4.393 692.263 4.393 693.398C4.393 694.563 4.462 695.545 4.6 696.342C4.738 697.124 5.02933 697.76 5.474 698.251C5.91867 698.726 6.57033 698.964 7.429 698.964C8.28767 698.964 8.93933 698.726 9.384 698.251C9.82867 697.76 10.12 697.124 10.258 696.342C10.396 695.545 10.465 694.563 10.465 693.398ZM16.0881 693.398C16.0881 690.745 16.5635 688.668 17.5141 687.165C18.4801 685.662 20.0748 684.911 22.2981 684.911C24.5215 684.911 26.1085 685.662 27.0591 687.165C28.0251 688.668 28.5081 690.745 28.5081 693.398C28.5081 696.066 28.0251 698.159 27.0591 699.677C26.1085 701.195 24.5215 701.954 22.2981 701.954C20.0748 701.954 18.4801 701.195 17.5141 699.677C16.5635 698.159 16.0881 696.066 16.0881 693.398ZM25.3341 693.398C25.3341 692.263 25.2575 691.313 25.1041 690.546C24.9661 689.764 24.6748 689.128 24.2301 688.637C23.8008 688.146 23.1568 687.901 22.2981 687.901C21.4395 687.901 20.7878 688.146 20.3431 688.637C19.9138 689.128 19.6225 689.764 19.4691 690.546C19.3311 691.313 19.2621 692.263 19.2621 693.398C19.2621 694.563 19.3311 695.545 19.4691 696.342C19.6071 697.124 19.8985 697.76 20.3431 698.251C20.7878 698.726 21.4395 698.964 22.2981 698.964C23.1568 698.964 23.8085 698.726 24.2531 698.251C24.6978 697.76 24.9891 697.124 25.1271 696.342C25.2651 695.545 25.3341 694.563 25.3341 693.398ZM30.9573 693.398C30.9573 690.745 31.4326 688.668 32.3833 687.165C33.3493 685.662 34.9439 684.911 37.1673 684.911C39.3906 684.911 40.9776 685.662 41.9283 687.165C42.8943 688.668 43.3773 690.745 43.3773 693.398C43.3773 696.066 42.8943 698.159 41.9283 699.677C40.9776 701.195 39.3906 701.954 37.1673 701.954C34.9439 701.954 33.3493 701.195 32.3833 699.677C31.4326 698.159 30.9573 696.066 30.9573 693.398ZM40.2033 693.398C40.2033 692.263 40.1266 691.313 39.9733 690.546C39.8353 689.764 39.5439 689.128 39.0993 688.637C38.6699 688.146 38.0259 687.901 37.1673 687.901C36.3086 687.901 35.6569 688.146 35.2123 688.637C34.7829 689.128 34.4916 689.764 34.3383 690.546C34.2003 691.313 34.1313 692.263 34.1313 693.398C34.1313 694.563 34.2003 695.545 34.3383 696.342C34.4763 697.124 34.7676 697.76 35.2123 698.251C35.6569 698.726 36.3086 698.964 37.1673 698.964C38.0259 698.964 38.6776 698.726 39.1223 698.251C39.5669 697.76 39.8583 697.124 39.9963 696.342C40.1343 695.545 40.2033 694.563 40.2033 693.398ZM45.4354 688.2V685.233H50.9784V702H47.6664V688.2H45.4354ZM54.1594 693.398C54.1594 690.745 54.6348 688.668 55.5854 687.165C56.5514 685.662 58.1461 684.911 60.3694 684.911C62.5928 684.911 64.1798 685.662 65.1304 687.165C66.0964 688.668 66.5794 690.745 66.5794 693.398C66.5794 696.066 66.0964 698.159 65.1304 699.677C64.1798 701.195 62.5928 701.954 60.3694 701.954C58.1461 701.954 56.5514 701.195 55.5854 699.677C54.6348 698.159 54.1594 696.066 54.1594 693.398ZM63.4054 693.398C63.4054 692.263 63.3288 691.313 63.1754 690.546C63.0374 689.764 62.7461 689.128 62.3014 688.637C61.8721 688.146 61.2281 687.901 60.3694 687.901C59.5108 687.901 58.8591 688.146 58.4144 688.637C57.9851 689.128 57.6938 689.764 57.5404 690.546C57.4024 691.313 57.3334 692.263 57.3334 693.398C57.3334 694.563 57.4024 695.545 57.5404 696.342C57.6784 697.124 57.9698 697.76 58.4144 698.251C58.8591 698.726 59.5108 698.964 60.3694 698.964C61.2281 698.964 61.8798 698.726 62.3244 698.251C62.7691 697.76 63.0604 697.124 63.1984 696.342C63.3364 695.545 63.4054 694.563 63.4054 693.398ZM69.0286 693.398C69.0286 690.745 69.5039 688.668 70.4546 687.165C71.4206 685.662 73.0152 684.911 75.2386 684.911C77.4619 684.911 79.0489 685.662 79.9996 687.165C80.9656 688.668 81.4486 690.745 81.4486 693.398C81.4486 696.066 80.9656 698.159 79.9996 699.677C79.0489 701.195 77.4619 701.954 75.2386 701.954C73.0152 701.954 71.4206 701.195 70.4546 699.677C69.5039 698.159 69.0286 696.066 69.0286 693.398ZM78.2746 693.398C78.2746 692.263 78.1979 691.313 78.0446 690.546C77.9066 689.764 77.6152 689.128 77.1706 688.637C76.7412 688.146 76.0972 687.901 75.2386 687.901C74.3799 687.901 73.7282 688.146 73.2836 688.637C72.8542 689.128 72.5629 689.764 72.4096 690.546C72.2716 691.313 72.2026 692.263 72.2026 693.398C72.2026 694.563 72.2716 695.545 72.4096 696.342C72.5476 697.124 72.8389 697.76 73.2836 698.251C73.7282 698.726 74.3799 698.964 75.2386 698.964C76.0972 698.964 76.7489 698.726 77.1936 698.251C77.6382 697.76 77.9296 697.124 78.0676 696.342C78.2056 695.545 78.2746 694.563 78.2746 693.398ZM83.5067 688.2V685.233H89.0497V702H85.7377V688.2H83.5067ZM92.2307 693.398C92.2307 690.745 92.7061 688.668 93.6567 687.165C94.6227 685.662 96.2174 684.911 98.4407 684.911C100.664 684.911 102.251 685.662 103.202 687.165C104.168 688.668 104.651 690.745 104.651 693.398C104.651 696.066 104.168 698.159 103.202 699.677C102.251 701.195 100.664 701.954 98.4407 701.954C96.2174 701.954 94.6227 701.195 93.6567 699.677C92.7061 698.159 92.2307 696.066 92.2307 693.398ZM101.477 693.398C101.477 692.263 101.4 691.313 101.247 690.546C101.109 689.764 100.817 689.128 100.373 688.637C99.9434 688.146 99.2994 687.901 98.4407 687.901C97.5821 687.901 96.9304 688.146 96.4857 688.637C96.0564 689.128 95.7651 689.764 95.6117 690.546C95.4737 691.313 95.4047 692.263 95.4047 693.398C95.4047 694.563 95.4737 695.545 95.6117 696.342C95.7497 697.124 96.0411 697.76 96.4857 698.251C96.9304 698.726 97.5821 698.964 98.4407 698.964C99.2994 698.964 99.9511 698.726 100.396 698.251C100.84 697.76 101.132 697.124 101.27 696.342C101.408 695.545 101.477 694.563 101.477 693.398Z" fill="white" fill-opacity="0.2"/>
<path d="M381.219 664.398C381.219 661.745 381.694 659.668 382.645 658.165C383.611 656.662 385.206 655.911 387.429 655.911C389.652 655.911 391.239 656.662 392.19 658.165C393.156 659.668 393.639 661.745 393.639 664.398C393.639 667.066 393.156 669.159 392.19 670.677C391.239 672.195 389.652 672.954 387.429 672.954C385.206 672.954 383.611 672.195 382.645 670.677C381.694 669.159 381.219 667.066 381.219 664.398ZM390.465 664.398C390.465 663.263 390.388 662.313 390.235 661.546C390.097 660.764 389.806 660.128 389.361 659.637C388.932 659.146 388.288 658.901 387.429 658.901C386.57 658.901 385.919 659.146 385.474 659.637C385.045 660.128 384.753 660.764 384.6 661.546C384.462 662.313 384.393 663.263 384.393 664.398C384.393 665.563 384.462 666.545 384.6 667.342C384.738 668.124 385.029 668.76 385.474 669.251C385.919 669.726 386.57 669.964 387.429 669.964C388.288 669.964 388.939 669.726 389.384 669.251C389.829 668.76 390.12 668.124 390.258 667.342C390.396 666.545 390.465 665.563 390.465 664.398ZM396.088 664.398C396.088 661.745 396.563 659.668 397.514 658.165C398.48 656.662 400.075 655.911 402.298 655.911C404.521 655.911 406.108 656.662 407.059 658.165C408.025 659.668 408.508 661.745 408.508 664.398C408.508 667.066 408.025 669.159 407.059 670.677C406.108 672.195 404.521 672.954 402.298 672.954C400.075 672.954 398.48 672.195 397.514 670.677C396.563 669.159 396.088 667.066 396.088 664.398ZM405.334 664.398C405.334 663.263 405.257 662.313 405.104 661.546C404.966 660.764 404.675 660.128 404.23 659.637C403.801 659.146 403.157 658.901 402.298 658.901C401.439 658.901 400.788 659.146 400.343 659.637C399.914 660.128 399.622 660.764 399.469 661.546C399.331 662.313 399.262 663.263 399.262 664.398C399.262 665.563 399.331 666.545 399.469 667.342C399.607 668.124 399.898 668.76 400.343 669.251C400.788 669.726 401.439 669.964 402.298 669.964C403.157 669.964 403.808 669.726 404.253 669.251C404.698 668.76 404.989 668.124 405.127 667.342C405.265 666.545 405.334 665.563 405.334 664.398ZM410.957 664.398C410.957 661.745 411.433 659.668 412.383 658.165C413.349 656.662 414.944 655.911 417.167 655.911C419.391 655.911 420.978 656.662 421.928 658.165C422.894 659.668 423.377 661.745 423.377 664.398C423.377 667.066 422.894 669.159 421.928 670.677C420.978 672.195 419.391 672.954 417.167 672.954C414.944 672.954 413.349 672.195 412.383 670.677C411.433 669.159 410.957 667.066 410.957 664.398ZM420.203 664.398C420.203 663.263 420.127 662.313 419.973 661.546C419.835 660.764 419.544 660.128 419.099 659.637C418.67 659.146 418.026 658.901 417.167 658.901C416.309 658.901 415.657 659.146 415.212 659.637C414.783 660.128 414.492 660.764 414.338 661.546C414.2 662.313 414.131 663.263 414.131 664.398C414.131 665.563 414.2 666.545 414.338 667.342C414.476 668.124 414.768 668.76 415.212 669.251C415.657 669.726 416.309 669.964 417.167 669.964C418.026 669.964 418.678 669.726 419.122 669.251C419.567 668.76 419.858 668.124 419.996 667.342C420.134 666.545 420.203 665.563 420.203 664.398ZM425.826 664.398C425.826 661.745 426.302 659.668 427.252 658.165C428.218 656.662 429.813 655.911 432.036 655.911C434.26 655.911 435.847 656.662 436.797 658.165C437.763 659.668 438.246 661.745 438.246 664.398C438.246 667.066 437.763 669.159 436.797 670.677C435.847 672.195 434.26 672.954 432.036 672.954C429.813 672.954 428.218 672.195 427.252 670.677C426.302 669.159 425.826 667.066 425.826 664.398ZM435.072 664.398C435.072 663.263 434.996 662.313 434.842 661.546C434.704 660.764 434.413 660.128 433.968 659.637C433.539 659.146 432.895 658.901 432.036 658.901C431.178 658.901 430.526 659.146 430.081 659.637C429.652 660.128 429.361 660.764 429.207 661.546C429.069 662.313 429 663.263 429 664.398C429 665.563 429.069 666.545 429.207 667.342C429.345 668.124 429.637 668.76 430.081 669.251C430.526 669.726 431.178 669.964 432.036 669.964C432.895 669.964 433.547 669.726 433.991 669.251C434.436 668.76 434.727 668.124 434.865 667.342C435.003 666.545 435.072 665.563 435.072 664.398ZM440.696 664.398C440.696 661.745 441.171 659.668 442.122 658.165C443.088 656.662 444.682 655.911 446.906 655.911C449.129 655.911 450.716 656.662 451.667 658.165C452.633 659.668 453.116 661.745 453.116 664.398C453.116 667.066 452.633 669.159 451.667 670.677C450.716 672.195 449.129 672.954 446.906 672.954C444.682 672.954 443.088 672.195 442.122 670.677C441.171 669.159 440.696 667.066 440.696 664.398ZM449.942 664.398C449.942 663.263 449.865 662.313 449.712 661.546C449.574 660.764 449.282 660.128 448.838 659.637C448.408 659.146 447.764 658.901 446.906 658.901C446.047 658.901 445.395 659.146 444.951 659.637C444.521 660.128 444.23 660.764 444.077 661.546C443.939 662.313 443.87 663.263 443.87 664.398C443.87 665.563 443.939 666.545 444.077 667.342C444.215 668.124 444.506 668.76 444.951 669.251C445.395 669.726 446.047 669.964 446.906 669.964C447.764 669.964 448.416 669.726 448.861 669.251C449.305 668.76 449.597 668.124 449.735 667.342C449.873 666.545 449.942 665.563 449.942 664.398ZM455.174 659.2V656.233H460.717V673H457.405V659.2H455.174ZM463.898 664.398C463.898 661.745 464.373 659.668 465.324 658.165C466.29 656.662 467.884 655.911 470.108 655.911C472.331 655.911 473.918 656.662 474.869 658.165C475.835 659.668 476.318 661.745 476.318 664.398C476.318 667.066 475.835 669.159 474.869 670.677C473.918 672.195 472.331 672.954 470.108 672.954C467.884 672.954 466.29 672.195 465.324 670.677C464.373 669.159 463.898 667.066 463.898 664.398ZM473.144 664.398C473.144 663.263 473.067 662.313 472.914 661.546C472.776 660.764 472.484 660.128 472.04 659.637C471.61 659.146 470.966 658.901 470.108 658.901C469.249 658.901 468.597 659.146 468.153 659.637C467.723 660.128 467.432 660.764 467.279 661.546C467.141 662.313 467.072 663.263 467.072 664.398C467.072 665.563 467.141 666.545 467.279 667.342C467.417 668.124 467.708 668.76 468.153 669.251C468.597 669.726 469.249 669.964 470.108 669.964C470.966 669.964 471.618 669.726 472.063 669.251C472.507 668.76 472.799 668.124 472.937 667.342C473.075 666.545 473.144 665.563 473.144 664.398ZM478.376 659.2V656.233H483.919V673H480.607V659.2H478.376Z" fill="white" fill-opacity="0.2"/>
<path d="M118.219 535.398C118.219 532.745 118.694 530.668 119.645 529.165C120.611 527.662 122.206 526.911 124.429 526.911C126.652 526.911 128.239 527.662 129.19 529.165C130.156 530.668 130.639 532.745 130.639 535.398C130.639 538.066 130.156 540.159 129.19 541.677C128.239 543.195 126.652 543.954 124.429 543.954C122.206 543.954 120.611 543.195 119.645 541.677C118.694 540.159 118.219 538.066 118.219 535.398ZM127.465 535.398C127.465 534.263 127.388 533.313 127.235 532.546C127.097 531.764 126.806 531.128 126.361 530.637C125.932 530.146 125.288 529.901 124.429 529.901C123.57 529.901 122.919 530.146 122.474 530.637C122.045 531.128 121.753 531.764 121.6 532.546C121.462 533.313 121.393 534.263 121.393 535.398C121.393 536.563 121.462 537.545 121.6 538.342C121.738 539.124 122.029 539.76 122.474 540.251C122.919 540.726 123.57 540.964 124.429 540.964C125.288 540.964 125.939 540.726 126.384 540.251C126.829 539.76 127.12 539.124 127.258 538.342C127.396 537.545 127.465 536.563 127.465 535.398ZM133.088 535.398C133.088 532.745 133.563 530.668 134.514 529.165C135.48 527.662 137.075 526.911 139.298 526.911C141.521 526.911 143.108 527.662 144.059 529.165C145.025 530.668 145.508 532.745 145.508 535.398C145.508 538.066 145.025 540.159 144.059 541.677C143.108 543.195 141.521 543.954 139.298 543.954C137.075 543.954 135.48 543.195 134.514 541.677C133.563 540.159 133.088 538.066 133.088 535.398ZM142.334 535.398C142.334 534.263 142.257 533.313 142.104 532.546C141.966 531.764 141.675 531.128 141.23 530.637C140.801 530.146 140.157 529.901 139.298 529.901C138.439 529.901 137.788 530.146 137.343 530.637C136.914 531.128 136.622 531.764 136.469 532.546C136.331 533.313 136.262 534.263 136.262 535.398C136.262 536.563 136.331 537.545 136.469 538.342C136.607 539.124 136.898 539.76 137.343 540.251C137.788 540.726 138.439 540.964 139.298 540.964C140.157 540.964 140.808 540.726 141.253 540.251C141.698 539.76 141.989 539.124 142.127 538.342C142.265 537.545 142.334 536.563 142.334 535.398ZM147.957 535.398C147.957 532.745 148.433 530.668 149.383 529.165C150.349 527.662 151.944 526.911 154.167 526.911C156.391 526.911 157.978 527.662 158.928 529.165C159.894 530.668 160.377 532.745 160.377 535.398C160.377 538.066 159.894 540.159 158.928 541.677C157.978 543.195 156.391 543.954 154.167 543.954C151.944 543.954 150.349 543.195 149.383 541.677C148.433 540.159 147.957 538.066 147.957 535.398ZM157.203 535.398C157.203 534.263 157.127 533.313 156.973 532.546C156.835 531.764 156.544 531.128 156.099 530.637C155.67 530.146 155.026 529.901 154.167 529.901C153.309 529.901 152.657 530.146 152.212 530.637C151.783 531.128 151.492 531.764 151.338 532.546C151.2 533.313 151.131 534.263 151.131 535.398C151.131 536.563 151.2 537.545 151.338 538.342C151.476 539.124 151.768 539.76 152.212 540.251C152.657 540.726 153.309 540.964 154.167 540.964C155.026 540.964 155.678 540.726 156.122 540.251C156.567 539.76 156.858 539.124 156.996 538.342C157.134 537.545 157.203 536.563 157.203 535.398ZM162.435 530.2V527.233H167.978V544H164.666V530.2H162.435ZM171.159 535.398C171.159 532.745 171.635 530.668 172.585 529.165C173.551 527.662 175.146 526.911 177.369 526.911C179.593 526.911 181.18 527.662 182.13 529.165C183.096 530.668 183.579 532.745 183.579 535.398C183.579 538.066 183.096 540.159 182.13 541.677C181.18 543.195 179.593 543.954 177.369 543.954C175.146 543.954 173.551 543.195 172.585 541.677C171.635 540.159 171.159 538.066 171.159 535.398ZM180.405 535.398C180.405 534.263 180.329 533.313 180.175 532.546C180.037 531.764 179.746 531.128 179.301 530.637C178.872 530.146 178.228 529.901 177.369 529.901C176.511 529.901 175.859 530.146 175.414 530.637C174.985 531.128 174.694 531.764 174.54 532.546C174.402 533.313 174.333 534.263 174.333 535.398C174.333 536.563 174.402 537.545 174.54 538.342C174.678 539.124 174.97 539.76 175.414 540.251C175.859 540.726 176.511 540.964 177.369 540.964C178.228 540.964 178.88 540.726 179.324 540.251C179.769 539.76 180.06 539.124 180.198 538.342C180.336 537.545 180.405 536.563 180.405 535.398ZM185.638 530.2V527.233H191.181V544H187.869V530.2H185.638ZM194.362 535.398C194.362 532.745 194.837 530.668 195.788 529.165C196.754 527.662 198.348 526.911 200.572 526.911C202.795 526.911 204.382 527.662 205.333 529.165C206.299 530.668 206.782 532.745 206.782 535.398C206.782 538.066 206.299 540.159 205.333 541.677C204.382 543.195 202.795 543.954 200.572 543.954C198.348 543.954 196.754 543.195 195.788 541.677C194.837 540.159 194.362 538.066 194.362 535.398ZM203.608 535.398C203.608 534.263 203.531 533.313 203.378 532.546C203.24 531.764 202.948 531.128 202.504 530.637C202.074 530.146 201.43 529.901 200.572 529.901C199.713 529.901 199.061 530.146 198.617 530.637C198.187 531.128 197.896 531.764 197.743 532.546C197.605 533.313 197.536 534.263 197.536 535.398C197.536 536.563 197.605 537.545 197.743 538.342C197.881 539.124 198.172 539.76 198.617 540.251C199.061 540.726 199.713 540.964 200.572 540.964C201.43 540.964 202.082 540.726 202.527 540.251C202.971 539.76 203.263 539.124 203.401 538.342C203.539 537.545 203.608 536.563 203.608 535.398ZM209.231 535.398C209.231 532.745 209.706 530.668 210.657 529.165C211.623 527.662 213.217 526.911 215.441 526.911C217.664 526.911 219.251 527.662 220.202 529.165C221.168 530.668 221.651 532.745 221.651 535.398C221.651 538.066 221.168 540.159 220.202 541.677C219.251 543.195 217.664 543.954 215.441 543.954C213.217 543.954 211.623 543.195 210.657 541.677C209.706 540.159 209.231 538.066 209.231 535.398ZM218.477 535.398C218.477 534.263 218.4 533.313 218.247 532.546C218.109 531.764 217.817 531.128 217.373 530.637C216.943 530.146 216.299 529.901 215.441 529.901C214.582 529.901 213.93 530.146 213.486 530.637C213.056 531.128 212.765 531.764 212.612 532.546C212.474 533.313 212.405 534.263 212.405 535.398C212.405 536.563 212.474 537.545 212.612 538.342C212.75 539.124 213.041 539.76 213.486 540.251C213.93 540.726 214.582 540.964 215.441 540.964C216.299 540.964 216.951 540.726 217.396 540.251C217.84 539.76 218.132 539.124 218.27 538.342C218.408 537.545 218.477 536.563 218.477 535.398Z" fill="white" fill-opacity="0.2"/>
</svg>
