<svg width="443" height="443" viewBox="0 0 443 443" fill="none" xmlns="http://www.w3.org/2000/svg">
<g filter="url(#filter0_bi_1_105)">
<rect width="443" height="443" rx="221.5" fill="url(#paint0_linear_1_105)" fill-opacity="0.5"/>
</g>
<g filter="url(#filter1_bi_1_105)">
<rect x="55" y="55" width="338" height="338" rx="169" fill="url(#paint1_linear_1_105)" fill-opacity="0.5"/>
</g>
<g filter="url(#filter2_bi_1_105)">
<rect x="112" y="112" width="227" height="227" rx="113.5" fill="url(#paint2_linear_1_105)" fill-opacity="0.5"/>
</g>
<path d="M118.23 221.13C118.23 222.437 117.915 223.662 117.285 224.805C116.678 225.948 115.71 226.87 114.38 227.57C113.073 228.27 111.417 228.62 109.41 228.62H105.315V238H100.415V213.57H109.41C111.3 213.57 112.91 213.897 114.24 214.55C115.57 215.203 116.562 216.102 117.215 217.245C117.892 218.388 118.23 219.683 118.23 221.13ZM109.2 224.665C110.553 224.665 111.557 224.362 112.21 223.755C112.863 223.125 113.19 222.25 113.19 221.13C113.19 218.75 111.86 217.56 109.2 217.56H105.315V224.665H109.2ZM130.319 238.315C128.452 238.315 126.772 237.907 125.279 237.09C123.786 236.25 122.607 235.072 121.744 233.555C120.904 232.038 120.484 230.288 120.484 228.305C120.484 226.322 120.916 224.572 121.779 223.055C122.666 221.538 123.867 220.372 125.384 219.555C126.901 218.715 128.592 218.295 130.459 218.295C132.326 218.295 134.017 218.715 135.534 219.555C137.051 220.372 138.241 221.538 139.104 223.055C139.991 224.572 140.434 226.322 140.434 228.305C140.434 230.288 139.979 232.038 139.069 233.555C138.182 235.072 136.969 236.25 135.429 237.09C133.912 237.907 132.209 238.315 130.319 238.315ZM130.319 234.045C131.206 234.045 132.034 233.835 132.804 233.415C133.597 232.972 134.227 232.318 134.694 231.455C135.161 230.592 135.394 229.542 135.394 228.305C135.394 226.462 134.904 225.05 133.924 224.07C132.967 223.067 131.789 222.565 130.389 222.565C128.989 222.565 127.811 223.067 126.854 224.07C125.921 225.05 125.454 226.462 125.454 228.305C125.454 230.148 125.909 231.572 126.819 232.575C127.752 233.555 128.919 234.045 130.319 234.045ZM170.908 218.61L165.238 238H159.953L156.418 224.455L152.883 238H147.563L141.858 218.61H146.828L150.258 233.38L153.968 218.61H159.148L162.788 233.345L166.218 218.61H170.908ZM191.585 227.885C191.585 228.585 191.538 229.215 191.445 229.775H177.27C177.386 231.175 177.876 232.272 178.74 233.065C179.603 233.858 180.665 234.255 181.925 234.255C183.745 234.255 185.04 233.473 185.81 231.91H191.095C190.535 233.777 189.461 235.317 187.875 236.53C186.288 237.72 184.34 238.315 182.03 238.315C180.163 238.315 178.483 237.907 176.99 237.09C175.52 236.25 174.365 235.072 173.525 233.555C172.708 232.038 172.3 230.288 172.3 228.305C172.3 226.298 172.708 224.537 173.525 223.02C174.341 221.503 175.485 220.337 176.955 219.52C178.425 218.703 180.116 218.295 182.03 218.295C183.873 218.295 185.518 218.692 186.965 219.485C188.435 220.278 189.566 221.41 190.36 222.88C191.176 224.327 191.585 225.995 191.585 227.885ZM186.51 226.485C186.486 225.225 186.031 224.222 185.145 223.475C184.258 222.705 183.173 222.32 181.89 222.32C180.676 222.32 179.65 222.693 178.81 223.44C177.993 224.163 177.491 225.178 177.305 226.485H186.51ZM200.061 221.62C200.691 220.593 201.508 219.788 202.511 219.205C203.538 218.622 204.704 218.33 206.011 218.33V223.475H204.716C203.176 223.475 202.009 223.837 201.216 224.56C200.446 225.283 200.061 226.543 200.061 228.34V238H195.161V218.61H200.061V221.62ZM226.261 238.315C224.395 238.315 222.715 237.907 221.221 237.09C219.728 236.25 218.55 235.072 217.686 233.555C216.846 232.038 216.426 230.288 216.426 228.305C216.426 226.322 216.858 224.572 217.721 223.055C218.608 221.538 219.81 220.372 221.326 219.555C222.843 218.715 224.535 218.295 226.401 218.295C228.268 218.295 229.96 218.715 231.476 219.555C232.993 220.372 234.183 221.538 235.046 223.055C235.933 224.572 236.376 226.322 236.376 228.305C236.376 230.288 235.921 232.038 235.011 233.555C234.125 235.072 232.911 236.25 231.371 237.09C229.855 237.907 228.151 238.315 226.261 238.315ZM226.261 234.045C227.148 234.045 227.976 233.835 228.746 233.415C229.54 232.972 230.17 232.318 230.636 231.455C231.103 230.592 231.336 229.542 231.336 228.305C231.336 226.462 230.846 225.05 229.866 224.07C228.91 223.067 227.731 222.565 226.331 222.565C224.931 222.565 223.753 223.067 222.796 224.07C221.863 225.05 221.396 226.462 221.396 228.305C221.396 230.148 221.851 231.572 222.761 232.575C223.695 233.555 224.861 234.045 226.261 234.045ZM248.861 222.635H245.466V238H240.496V222.635H238.291V218.61H240.496V217.63C240.496 215.25 241.172 213.5 242.526 212.38C243.879 211.26 245.921 210.735 248.651 210.805V214.935C247.461 214.912 246.632 215.11 246.166 215.53C245.699 215.95 245.466 216.708 245.466 217.805V218.61H248.861V222.635ZM259.186 225.75C259.186 223.347 259.723 221.2 260.796 219.31C261.893 217.397 263.374 215.915 265.241 214.865C267.131 213.792 269.243 213.255 271.576 213.255C274.306 213.255 276.698 213.955 278.751 215.355C280.804 216.755 282.239 218.692 283.056 221.165H277.421C276.861 219.998 276.068 219.123 275.041 218.54C274.038 217.957 272.871 217.665 271.541 217.665C270.118 217.665 268.846 218.003 267.726 218.68C266.629 219.333 265.766 220.267 265.136 221.48C264.529 222.693 264.226 224.117 264.226 225.75C264.226 227.36 264.529 228.783 265.136 230.02C265.766 231.233 266.629 232.178 267.726 232.855C268.846 233.508 270.118 233.835 271.541 233.835C272.871 233.835 274.038 233.543 275.041 232.96C276.068 232.353 276.861 231.467 277.421 230.3H283.056C282.239 232.797 280.804 234.745 278.751 236.145C276.721 237.522 274.329 238.21 271.576 238.21C269.243 238.21 267.131 237.685 265.241 236.635C263.374 235.562 261.893 234.08 260.796 232.19C259.723 230.3 259.186 228.153 259.186 225.75ZM295.851 238.315C293.985 238.315 292.305 237.907 290.811 237.09C289.318 236.25 288.14 235.072 287.276 233.555C286.436 232.038 286.016 230.288 286.016 228.305C286.016 226.322 286.448 224.572 287.311 223.055C288.198 221.538 289.4 220.372 290.916 219.555C292.433 218.715 294.125 218.295 295.991 218.295C297.858 218.295 299.55 218.715 301.066 219.555C302.583 220.372 303.773 221.538 304.636 223.055C305.523 224.572 305.966 226.322 305.966 228.305C305.966 230.288 305.511 232.038 304.601 233.555C303.715 235.072 302.501 236.25 300.961 237.09C299.445 237.907 297.741 238.315 295.851 238.315ZM295.851 234.045C296.738 234.045 297.566 233.835 298.336 233.415C299.13 232.972 299.76 232.318 300.226 231.455C300.693 230.592 300.926 229.542 300.926 228.305C300.926 226.462 300.436 225.05 299.456 224.07C298.5 223.067 297.321 222.565 295.921 222.565C294.521 222.565 293.343 223.067 292.386 224.07C291.453 225.05 290.986 226.462 290.986 228.305C290.986 230.148 291.441 231.572 292.351 232.575C293.285 233.555 294.451 234.045 295.851 234.045ZM308.301 228.235C308.301 226.275 308.686 224.537 309.456 223.02C310.249 221.503 311.322 220.337 312.676 219.52C314.029 218.703 315.534 218.295 317.191 218.295C318.451 218.295 319.652 218.575 320.796 219.135C321.939 219.672 322.849 220.395 323.526 221.305V212.1H328.496V238H323.526V235.13C322.919 236.087 322.067 236.857 320.971 237.44C319.874 238.023 318.602 238.315 317.156 238.315C315.522 238.315 314.029 237.895 312.676 237.055C311.322 236.215 310.249 235.037 309.456 233.52C308.686 231.98 308.301 230.218 308.301 228.235ZM323.561 228.305C323.561 227.115 323.327 226.1 322.861 225.26C322.394 224.397 321.764 223.743 320.971 223.3C320.177 222.833 319.326 222.6 318.416 222.6C317.506 222.6 316.666 222.822 315.896 223.265C315.126 223.708 314.496 224.362 314.006 225.225C313.539 226.065 313.306 227.068 313.306 228.235C313.306 229.402 313.539 230.428 314.006 231.315C314.496 232.178 315.126 232.843 315.896 233.31C316.689 233.777 317.529 234.01 318.416 234.01C319.326 234.01 320.177 233.788 320.971 233.345C321.764 232.878 322.394 232.225 322.861 231.385C323.327 230.522 323.561 229.495 323.561 228.305ZM351.306 227.885C351.306 228.585 351.26 229.215 351.166 229.775H336.991C337.108 231.175 337.598 232.272 338.461 233.065C339.325 233.858 340.386 234.255 341.646 234.255C343.466 234.255 344.761 233.473 345.531 231.91H350.816C350.256 233.777 349.183 235.317 347.596 236.53C346.01 237.72 344.061 238.315 341.751 238.315C339.885 238.315 338.205 237.907 336.711 237.09C335.241 236.25 334.086 235.072 333.246 233.555C332.43 232.038 332.021 230.288 332.021 228.305C332.021 226.298 332.43 224.537 333.246 223.02C334.063 221.503 335.206 220.337 336.676 219.52C338.146 218.703 339.838 218.295 341.751 218.295C343.595 218.295 345.24 218.692 346.686 219.485C348.156 220.278 349.288 221.41 350.081 222.88C350.898 224.327 351.306 225.995 351.306 227.885ZM346.231 226.485C346.208 225.225 345.753 224.222 344.866 223.475C343.98 222.705 342.895 222.32 341.611 222.32C340.398 222.32 339.371 222.693 338.531 223.44C337.715 224.163 337.213 225.178 337.026 226.485H346.231Z" fill="url(#paint3_linear_1_105)"/>
<defs>
<filter id="filter0_bi_1_105" x="-4" y="-4" width="451" height="451" filterUnits="userSpaceOnUse" color-interpolation-filters="sRGB">
<feFlood flood-opacity="0" result="BackgroundImageFix"/>
<feGaussianBlur in="BackgroundImageFix" stdDeviation="2"/>
<feComposite in2="SourceAlpha" operator="in" result="effect1_backgroundBlur_1_105"/>
<feBlend mode="normal" in="SourceGraphic" in2="effect1_backgroundBlur_1_105" result="shape"/>
<feColorMatrix in="SourceAlpha" type="matrix" values="0 0 0 0 0 0 0 0 0 0 0 0 0 0 0 0 0 0 127 0" result="hardAlpha"/>
<feOffset/>
<feGaussianBlur stdDeviation="20"/>
<feComposite in2="hardAlpha" operator="arithmetic" k2="-1" k3="1"/>
<feColorMatrix type="matrix" values="0 0 0 0 1 0 0 0 0 1 0 0 0 0 1 0 0 0 0.25 0"/>
<feBlend mode="normal" in2="shape" result="effect2_innerShadow_1_105"/>
</filter>
<filter id="filter1_bi_1_105" x="51" y="51" width="346" height="346" filterUnits="userSpaceOnUse" color-interpolation-filters="sRGB">
<feFlood flood-opacity="0" result="BackgroundImageFix"/>
<feGaussianBlur in="BackgroundImageFix" stdDeviation="2"/>
<feComposite in2="SourceAlpha" operator="in" result="effect1_backgroundBlur_1_105"/>
<feBlend mode="normal" in="SourceGraphic" in2="effect1_backgroundBlur_1_105" result="shape"/>
<feColorMatrix in="SourceAlpha" type="matrix" values="0 0 0 0 0 0 0 0 0 0 0 0 0 0 0 0 0 0 127 0" result="hardAlpha"/>
<feOffset/>
<feGaussianBlur stdDeviation="20"/>
<feComposite in2="hardAlpha" operator="arithmetic" k2="-1" k3="1"/>
<feColorMatrix type="matrix" values="0 0 0 0 1 0 0 0 0 1 0 0 0 0 1 0 0 0 0.25 0"/>
<feBlend mode="normal" in2="shape" result="effect2_innerShadow_1_105"/>
</filter>
<filter id="filter2_bi_1_105" x="108" y="108" width="235" height="235" filterUnits="userSpaceOnUse" color-interpolation-filters="sRGB">
<feFlood flood-opacity="0" result="BackgroundImageFix"/>
<feGaussianBlur in="BackgroundImageFix" stdDeviation="2"/>
<feComposite in2="SourceAlpha" operator="in" result="effect1_backgroundBlur_1_105"/>
<feBlend mode="normal" in="SourceGraphic" in2="effect1_backgroundBlur_1_105" result="shape"/>
<feColorMatrix in="SourceAlpha" type="matrix" values="0 0 0 0 0 0 0 0 0 0 0 0 0 0 0 0 0 0 127 0" result="hardAlpha"/>
<feOffset/>
<feGaussianBlur stdDeviation="20"/>
<feComposite in2="hardAlpha" operator="arithmetic" k2="-1" k3="1"/>
<feColorMatrix type="matrix" values="0 0 0 0 1 0 0 0 0 1 0 0 0 0 1 0 0 0 0.25 0"/>
<feBlend mode="normal" in2="shape" result="effect2_innerShadow_1_105"/>
</filter>
<linearGradient id="paint0_linear_1_105" x1="-12.7788" y1="486.986" x2="273.748" y2="-113.258" gradientUnits="userSpaceOnUse">
<stop stop-color="#1B0069"/>
<stop offset="0.996131" stop-color="#1B0069" stop-opacity="0"/>
</linearGradient>
<linearGradient id="paint1_linear_1_105" x1="45.25" y1="426.56" x2="263.864" y2="-31.4137" gradientUnits="userSpaceOnUse">
<stop stop-color="#1B0069"/>
<stop offset="0.996131" stop-color="#1B0069" stop-opacity="0"/>
</linearGradient>
<linearGradient id="paint2_linear_1_105" x1="105.452" y1="361.539" x2="252.273" y2="53.9647" gradientUnits="userSpaceOnUse">
<stop stop-color="#1B0069"/>
<stop offset="0.996131" stop-color="#1B0069" stop-opacity="0"/>
</linearGradient>
<linearGradient id="paint3_linear_1_105" x1="90.1458" y1="230.25" x2="384.672" y2="225.589" gradientUnits="userSpaceOnUse">
<stop stop-color="#49C9EE"/>
<stop offset="0.286458" stop-color="#641ED3"/>
<stop offset="0.5" stop-color="#AB0BB3"/>
<stop offset="0.713542" stop-color="#D42D5D"/>
<stop offset="0.911458" stop-color="#F27425"/>
</linearGradient>
</defs>
</svg>
